<svg id="svg" version="1.1" xmlns="http://www.w3.org/2000/svg" xmlns:xlink="http://www.w3.org/1999/xlink" width="400" height="400" viewBox="0, 0, 400,400"><g id="svgg"><path id="path0" d="M264.383 106.405 C 260.562 107.432,258.432 110.029,257.632 114.631 C 257.241 116.884,256.830 117.917,255.810 119.215 C 254.149 121.326,245.997 130.800,240.662 136.820 L 236.597 141.406 224.817 141.406 L 213.037 141.406 211.889 140.185 C 206.674 134.634,197.852 137.610,197.852 144.920 C 197.852 152.332,205.789 155.352,211.422 150.082 L 212.491 149.081 220.366 149.167 C 227.675 149.247,229.930 149.541,229.614 150.372 C 229.547 150.547,227.622 152.864,225.336 155.521 C 219.801 161.953,207.984 176.192,204.144 181.056 C 200.357 185.854,197.294 189.062,196.498 189.065 C 188.124 189.095,186.386 201.171,194.476 203.112 C 196.527 203.604,198.708 205.967,211.245 221.284 C 213.885 224.510,217.671 229.082,219.659 231.445 C 226.420 239.484,229.795 243.773,229.552 244.016 C 228.165 245.402,213.114 244.831,211.523 243.332 C 205.453 237.609,194.766 243.651,198.006 250.975 C 200.488 256.585,207.097 257.933,211.707 253.768 L 213.152 252.462 220.656 252.181 C 224.783 252.026,230.178 252.023,232.644 252.175 L 237.129 252.451 241.904 258.335 C 244.531 261.571,248.764 266.601,251.311 269.512 C 257.136 276.168,257.120 276.143,257.488 279.199 C 258.998 291.739,274.761 291.294,275.741 278.683 L 275.988 275.508 280.670 270.139 C 285.481 264.623,293.900 254.656,295.179 252.963 L 295.898 252.011 308.869 251.889 L 321.841 251.766 323.127 253.012 C 330.267 259.922,340.790 251.662,335.074 243.634 C 332.674 240.263,324.468 240.365,322.636 243.788 C 322.223 244.559,305.236 244.925,303.409 244.202 C 302.825 243.972,303.319 243.195,306.534 239.286 C 310.535 234.421,317.054 226.405,327.539 213.461 C 330.977 209.217,334.149 205.311,334.589 204.780 C 335.193 204.053,336.089 203.683,338.237 203.277 C 347.672 201.493,346.750 189.088,337.181 189.065 C 335.329 189.060,331.336 184.917,322.832 174.178 C 320.723 171.515,317.486 167.578,315.637 165.430 C 307.493 155.962,302.740 149.864,303.172 149.433 C 303.286 149.318,307.548 149.107,312.642 148.963 L 321.904 148.703 323.159 149.917 C 328.161 154.759,336.719 152.033,336.719 145.598 C 336.719 137.383,329.359 134.439,322.710 139.994 L 321.070 141.364 309.042 141.395 L 297.014 141.426 292.880 137.217 C 290.607 134.902,286.684 130.547,284.163 127.539 C 281.642 124.531,278.777 121.237,277.796 120.218 C 276.265 118.628,276.025 118.163,276.108 116.939 C 276.573 110.036,270.655 104.719,264.383 106.405 M269.522 124.799 C 269.879 125.020,286.402 144.587,300.195 161.124 C 303.203 164.730,307.381 169.723,309.479 172.219 C 311.578 174.715,315.988 180.011,319.279 183.986 C 322.570 187.962,326.170 192.252,327.280 193.520 C 328.389 194.787,329.297 196.140,329.297 196.525 C 329.297 197.347,325.091 202.718,317.401 211.719 C 314.372 215.264,310.813 219.482,309.492 221.094 C 308.171 222.705,305.978 225.359,304.619 226.991 C 303.260 228.623,300.303 232.218,298.047 234.979 C 295.791 237.741,291.389 243.085,288.265 246.856 C 285.141 250.626,279.927 256.963,276.679 260.938 C 268.883 270.478,269.462 269.986,266.182 269.843 L 263.509 269.727 258.884 264.258 C 254.885 259.528,251.783 255.769,242.950 244.950 C 232.107 231.668,219.806 216.907,212.490 208.398 C 203.148 197.533,202.912 197.171,203.936 195.257 C 204.374 194.439,213.761 183.396,219.522 176.922 C 230.249 164.867,238.243 155.587,242.414 150.345 C 250.952 139.617,256.636 132.677,260.015 128.852 L 263.976 124.370 266.552 124.463 C 267.969 124.514,269.306 124.665,269.522 124.799 M131.641 126.027 C 88.426 131.425,62.978 168.688,71.919 213.477 C 81.742 262.685,139.385 284.810,179.492 254.765 C 183.719 251.599,187.500 247.990,187.500 247.123 C 187.500 246.386,172.566 231.250,171.839 231.250 C 171.618 231.250,169.997 232.496,168.238 234.019 C 134.274 263.420,88.553 232.891,96.813 186.327 C 102.942 151.777,141.285 137.187,167.004 159.619 C 168.575 160.988,170.008 162.109,170.188 162.109 C 171.253 162.109,185.938 146.819,185.938 145.711 C 185.938 144.077,172.277 134.383,166.072 131.615 C 156.112 127.170,141.488 124.797,131.641 126.027 M240.723 161.196 C 239.892 161.531,240.021 231.866,240.852 232.185 C 241.854 232.569,249.598 232.456,250.364 232.046 C 251.031 231.689,251.065 230.340,251.022 205.874 C 250.997 191.686,251.088 180.078,251.224 180.078 C 251.568 180.078,253.229 182.698,264.477 200.977 C 269.897 209.785,275.684 219.189,277.336 221.875 C 284.333 233.246,283.513 232.422,287.844 232.422 C 293.171 232.422,292.601 236.865,292.484 196.289 L 292.383 161.133 287.695 161.020 C 285.117 160.957,282.612 161.005,282.129 161.125 L 281.250 161.343 281.250 184.271 C 281.250 203.953,281.172 207.118,280.702 206.627 C 280.018 205.913,272.344 193.489,261.406 175.391 C 256.796 167.764,252.828 161.394,252.587 161.236 C 252.102 160.919,241.499 160.883,240.723 161.196 " stroke="none" fill="#fbfbfb" fill-rule="evenodd"></path><path id="path1" d="M0.000 200.000 L 0.000 400.000 200.000 400.000 L 400.000 400.000 400.000 200.000 L 400.000 0.000 200.000 0.000 L 0.000 0.000 0.000 200.000 M270.025 106.640 C 273.747 108.032,275.780 110.979,276.089 115.427 L 276.279 118.164 280.630 123.242 C 283.023 126.035,286.488 130.078,288.330 132.227 C 290.172 134.375,292.892 137.262,294.375 138.641 L 297.070 141.150 309.375 141.061 L 321.680 140.972 323.047 139.646 C 328.747 134.115,336.707 137.479,336.717 145.423 C 336.724 152.164,328.767 155.001,323.205 150.240 L 321.626 148.888 312.556 149.114 C 307.568 149.238,303.405 149.473,303.304 149.636 C 303.061 150.028,304.829 152.317,311.690 160.497 C 314.821 164.230,319.756 170.221,322.656 173.812 C 331.685 184.988,334.686 188.235,336.395 188.676 C 337.218 188.889,338.638 189.254,339.551 189.488 C 347.376 191.496,346.463 202.339,338.384 203.349 C 335.572 203.700,335.016 204.229,327.265 213.905 C 319.269 223.886,311.044 234.016,306.691 239.240 C 304.729 241.594,303.125 243.638,303.125 243.782 C 303.125 244.336,305.861 244.531,313.653 244.531 L 321.739 244.531 322.686 243.518 C 327.666 238.186,336.674 241.292,336.710 248.352 C 336.746 255.329,328.399 258.440,323.422 253.304 L 322.112 251.953 309.002 251.953 C 296.409 251.953,295.872 251.983,295.413 252.718 C 294.842 253.632,284.743 265.650,279.506 271.648 L 275.781 275.912 275.781 278.732 C 275.781 284.310,272.599 287.878,267.325 288.214 C 261.794 288.566,257.455 284.601,257.430 279.172 C 257.420 276.886,256.609 275.609,251.659 270.089 C 248.570 266.644,246.736 264.437,238.928 254.770 L 236.944 252.312 224.936 252.426 L 212.927 252.539 211.444 253.981 C 208.131 257.201,202.605 256.959,199.335 253.451 C 192.467 246.083,204.065 236.257,211.381 243.246 L 212.802 244.603 220.561 244.446 C 224.829 244.360,228.617 244.153,228.979 243.988 C 229.718 243.649,229.371 243.212,208.203 217.828 C 204.443 213.320,200.343 208.387,199.091 206.866 C 197.112 204.463,196.514 203.999,194.524 203.320 C 186.776 200.676,187.397 190.271,195.366 189.214 C 197.592 188.918,197.985 188.535,205.136 179.657 C 211.248 172.068,219.572 162.043,225.491 155.140 C 230.670 149.100,230.941 149.445,220.912 149.294 L 212.955 149.175 211.156 150.548 C 205.071 155.193,197.596 152.112,197.508 144.922 C 197.425 138.064,205.862 134.658,211.085 139.442 L 212.695 140.916 224.449 141.199 L 236.202 141.482 240.079 137.245 C 252.882 123.251,257.274 117.622,257.522 114.890 C 258.130 108.186,263.930 104.359,270.025 106.640 M263.086 125.609 C 260.122 128.649,255.664 133.847,251.367 139.272 C 240.715 152.722,234.871 159.712,223.569 172.518 C 215.844 181.272,205.216 193.580,204.570 194.521 C 202.958 196.867,203.931 198.569,212.278 208.008 C 214.955 211.034,228.447 227.079,232.813 232.426 C 250.804 254.464,261.123 266.965,262.930 268.910 C 263.477 269.499,264.214 269.666,266.445 269.708 L 269.267 269.760 274.770 263.103 C 277.797 259.441,281.320 255.127,282.600 253.516 C 283.879 251.904,286.351 248.916,288.092 246.875 C 289.834 244.834,293.094 240.910,295.337 238.155 C 305.624 225.516,312.229 217.557,319.548 208.984 C 325.126 202.452,329.297 197.061,329.297 196.387 C 329.297 196.155,328.277 194.808,327.030 193.393 C 325.783 191.978,322.746 188.356,320.281 185.345 C 314.759 178.598,306.376 168.619,303.570 165.451 C 302.418 164.150,299.782 160.980,297.711 158.407 C 295.640 155.833,291.924 151.334,289.453 148.410 C 286.982 145.485,281.480 138.948,277.225 133.883 L 269.490 124.674 266.874 124.541 C 264.388 124.414,264.199 124.467,263.086 125.609 M152.148 126.939 C 160.594 128.756,168.747 132.201,175.457 136.789 C 179.489 139.547,185.689 144.771,185.872 145.566 C 186.079 146.466,174.059 159.607,171.104 161.712 L 170.094 162.430 167.176 159.895 C 143.252 139.107,106.993 149.981,98.268 180.561 C 94.008 195.490,95.967 212.908,103.211 224.505 C 118.116 248.369,148.831 252.369,169.032 233.078 L 171.462 230.757 174.501 233.503 C 180.043 238.512,187.500 246.371,187.500 247.202 C 187.500 249.260,176.997 257.299,169.141 261.254 C 129.182 281.370,81.010 257.959,71.886 213.990 C 63.436 173.269,84.408 136.993,121.875 127.520 C 129.573 125.574,144.472 125.288,152.148 126.939 M254.925 164.453 C 277.133 201.078,280.556 206.641,280.888 206.641 C 281.016 206.641,281.079 196.541,281.027 184.197 C 280.951 166.213,281.033 161.670,281.438 161.334 C 281.759 161.068,283.856 160.954,287.163 161.024 L 292.383 161.133 292.483 196.247 C 292.557 222.360,292.467 231.500,292.131 231.904 C 291.788 232.318,290.735 232.421,287.734 232.337 L 283.789 232.227 282.364 230.078 C 280.718 227.598,274.663 217.829,264.929 201.953 C 261.175 195.830,256.588 188.392,254.736 185.423 L 251.367 180.026 251.172 206.126 L 250.977 232.227 245.953 232.336 C 242.582 232.410,240.751 232.298,240.387 231.995 C 239.632 231.369,239.569 162.150,240.322 161.397 C 240.668 161.051,242.476 160.948,246.856 161.026 L 252.912 161.133 254.925 164.453 " stroke="none" fill="#121313" fill-rule="evenodd"></path><path id="path2" d="M204.395 137.379 C 204.771 137.477,205.386 137.477,205.762 137.379 C 206.138 137.280,205.830 137.200,205.078 137.200 C 204.326 137.200,204.019 137.280,204.395 137.379 M222.949 141.291 C 223.433 141.384,224.224 141.384,224.707 141.291 C 225.190 141.198,224.795 141.122,223.828 141.122 C 222.861 141.122,222.466 141.198,222.949 141.291 M301.874 141.307 C 303.657 141.379,306.469 141.379,308.124 141.306 C 309.779 141.233,308.320 141.173,304.883 141.174 C 301.445 141.174,300.091 141.234,301.874 141.307 M138.770 149.097 C 139.146 149.196,139.761 149.196,140.137 149.097 C 140.513 148.999,140.205 148.919,139.453 148.919 C 138.701 148.919,138.394 148.999,138.770 149.097 M314.751 149.104 C 315.237 149.198,315.940 149.194,316.313 149.097 C 316.687 148.999,316.289 148.922,315.430 148.927 C 314.570 148.931,314.265 149.011,314.751 149.104 M240.031 196.680 C 240.031 216.016,240.078 223.869,240.137 214.131 C 240.195 204.393,240.195 188.572,240.137 178.974 C 240.078 169.376,240.031 177.344,240.031 196.680 M281.025 169.922 C 281.025 174.541,281.082 176.431,281.151 174.121 C 281.220 171.812,281.220 168.032,281.151 165.723 C 281.082 163.413,281.025 165.303,281.025 169.922 M70.034 196.680 C 70.037 197.754,70.112 198.147,70.202 197.553 C 70.292 196.959,70.290 196.081,70.197 195.600 C 70.104 195.120,70.031 195.605,70.034 196.680 M281.009 201.367 C 281.009 203.945,281.072 204.949,281.149 203.598 C 281.225 202.247,281.225 200.137,281.148 198.910 C 281.070 197.684,281.008 198.789,281.009 201.367 M138.191 245.596 C 138.893 245.683,139.947 245.681,140.534 245.592 C 141.121 245.502,140.547 245.431,139.258 245.434 C 137.969 245.436,137.488 245.509,138.191 245.596 " stroke="none" fill="#676667" fill-rule="evenodd"></path><path id="path3" d="M214.551 141.303 C 215.571 141.383,217.241 141.383,218.262 141.303 C 219.282 141.222,218.447 141.156,216.406 141.156 C 214.365 141.156,213.530 141.222,214.551 141.303 M316.300 141.298 C 316.993 141.384,318.224 141.385,319.034 141.301 C 319.845 141.216,319.277 141.146,317.773 141.144 C 316.270 141.142,315.606 141.211,316.300 141.298 M250.906 218.359 C 250.906 219.756,250.977 220.327,251.064 219.629 C 251.150 218.931,251.150 217.788,251.064 217.090 C 250.977 216.392,250.906 216.963,250.906 218.359 M217.487 244.814 C 218.190 244.901,219.244 244.899,219.831 244.810 C 220.418 244.721,219.844 244.650,218.555 244.652 C 217.266 244.654,216.785 244.727,217.487 244.814 M319.244 251.843 C 319.837 251.933,320.716 251.930,321.197 251.837 C 321.677 251.745,321.191 251.671,320.117 251.674 C 319.043 251.677,318.650 251.753,319.244 251.843 M223.535 252.240 C 224.556 252.321,226.226 252.321,227.246 252.240 C 228.267 252.160,227.432 252.094,225.391 252.094 C 223.350 252.094,222.515 252.160,223.535 252.240 " stroke="none" fill="#8d8c8c" fill-rule="evenodd"></path><path id="path4" d="M220.410 141.285 C 220.786 141.383,221.401 141.383,221.777 141.285 C 222.153 141.187,221.846 141.106,221.094 141.106 C 220.342 141.106,220.034 141.187,220.410 141.285 M312.019 141.299 C 312.721 141.386,313.775 141.384,314.362 141.295 C 314.949 141.206,314.375 141.134,313.086 141.137 C 311.797 141.139,311.317 141.212,312.019 141.299 " stroke="none" fill="#818184" fill-rule="evenodd"></path></g></svg>